<?xml version="1.0" encoding="UTF-8"?>
<?xml-stylesheet href="https://cdnjs.cloudflare.com/ajax/libs/font-awesome/6.7.2/css/all.min.css" type="text/css"?>
<svg aria-roledescription="sequence" role="graphics-document document" style="overflow: hidden; max-width: 100%; touch-action: none; -webkit-user-select: none; -webkit-user-drag: none;" xmlns="http://www.w3.org/2000/svg" width="100%" id="graph-3" height="100%" xmlns:xlink="http://www.w3.org/1999/xlink" xmlns:ev="http://www.w3.org/2001/xml-events"><defs><symbol height="24" width="24" id="computer"><path d="M2 2v13h20v-13h-20zm18 11h-16v-9h16v9zm-10.228 6l.466-1h3.524l.467 1h-4.457zm14.228 3h-24l2-6h2.104l-1.33 4h18.45l-1.297-4h2.073l2 6zm-5-10h-14v-7h14v7z" transform="scale(.5)"></path></symbol></defs><defs><symbol clip-rule="evenodd" fill-rule="evenodd" id="database"><path d="M12.258.001l.256.004.255.005.253.008.251.01.249.012.247.015.246.016.242.019.241.02.239.023.236.024.233.027.231.028.229.031.225.032.223.034.22.036.217.038.214.04.211.041.208.043.205.045.201.046.198.048.194.05.191.051.187.053.183.054.18.056.175.057.172.059.168.06.163.061.16.063.155.064.15.066.074.033.073.033.071.034.07.034.069.035.068.035.067.035.066.035.064.036.064.036.062.036.06.036.06.037.058.037.058.037.055.038.055.038.053.038.052.038.051.039.05.039.048.039.047.039.045.04.044.04.043.04.041.04.04.041.039.041.037.041.036.041.034.041.033.042.032.042.03.042.029.042.027.042.026.043.024.043.023.043.021.043.02.043.018.044.017.043.015.044.013.044.012.044.011.045.009.044.007.045.006.045.004.045.002.045.001.045v17l-.001.045-.002.045-.004.045-.006.045-.007.045-.009.044-.011.045-.012.044-.013.044-.015.044-.017.043-.018.044-.02.043-.021.043-.023.043-.024.043-.026.043-.027.042-.029.042-.03.042-.032.042-.033.042-.034.041-.036.041-.037.041-.039.041-.04.041-.041.04-.043.04-.044.04-.045.04-.047.039-.048.039-.05.039-.051.039-.052.038-.053.038-.055.038-.055.038-.058.037-.058.037-.06.037-.06.036-.062.036-.064.036-.064.036-.066.035-.067.035-.068.035-.069.035-.07.034-.071.034-.073.033-.074.033-.15.066-.155.064-.16.063-.163.061-.168.06-.172.059-.175.057-.18.056-.183.054-.187.053-.191.051-.194.05-.198.048-.201.046-.205.045-.208.043-.211.041-.214.04-.217.038-.22.036-.223.034-.225.032-.229.031-.231.028-.233.027-.236.024-.239.023-.241.02-.242.019-.246.016-.247.015-.249.012-.251.01-.253.008-.255.005-.256.004-.258.001-.258-.001-.256-.004-.255-.005-.253-.008-.251-.01-.249-.012-.247-.015-.245-.016-.243-.019-.241-.02-.238-.023-.236-.024-.234-.027-.231-.028-.228-.031-.226-.032-.223-.034-.22-.036-.217-.038-.214-.04-.211-.041-.208-.043-.204-.045-.201-.046-.198-.048-.195-.05-.19-.051-.187-.053-.184-.054-.179-.056-.176-.057-.172-.059-.167-.06-.164-.061-.159-.063-.155-.064-.151-.066-.074-.033-.072-.033-.072-.034-.07-.034-.069-.035-.068-.035-.067-.035-.066-.035-.064-.036-.063-.036-.062-.036-.061-.036-.06-.037-.058-.037-.057-.037-.056-.038-.055-.038-.053-.038-.052-.038-.051-.039-.049-.039-.049-.039-.046-.039-.046-.04-.044-.04-.043-.04-.041-.04-.04-.041-.039-.041-.037-.041-.036-.041-.034-.041-.033-.042-.032-.042-.03-.042-.029-.042-.027-.042-.026-.043-.024-.043-.023-.043-.021-.043-.02-.043-.018-.044-.017-.043-.015-.044-.013-.044-.012-.044-.011-.045-.009-.044-.007-.045-.006-.045-.004-.045-.002-.045-.001-.045v-17l.001-.045.002-.045.004-.045.006-.045.007-.045.009-.044.011-.045.012-.044.013-.044.015-.044.017-.043.018-.044.02-.043.021-.043.023-.043.024-.043.026-.043.027-.042.029-.042.03-.042.032-.042.033-.042.034-.041.036-.041.037-.041.039-.041.04-.041.041-.04.043-.04.044-.04.046-.04.046-.039.049-.039.049-.039.051-.039.052-.038.053-.038.055-.038.056-.038.057-.037.058-.037.06-.037.061-.036.062-.036.063-.036.064-.036.066-.035.067-.035.068-.035.069-.035.07-.034.072-.034.072-.033.074-.033.151-.066.155-.064.159-.063.164-.061.167-.06.172-.059.176-.057.179-.056.184-.054.187-.053.19-.051.195-.05.198-.048.201-.046.204-.045.208-.043.211-.041.214-.04.217-.038.22-.036.223-.034.226-.032.228-.031.231-.028.234-.027.236-.024.238-.023.241-.02.243-.019.245-.016.247-.015.249-.012.251-.01.253-.008.255-.005.256-.004.258-.001.258.001zm-9.258 20.499v.01l.001.021.003.021.004.022.005.021.006.022.007.022.009.023.01.022.011.023.012.023.013.023.015.023.016.024.017.023.018.024.019.024.021.024.022.025.023.024.024.025.052.049.056.05.061.051.066.051.07.051.075.051.079.052.084.052.088.052.092.052.097.052.102.051.105.052.11.052.114.051.119.051.123.051.127.05.131.05.135.05.139.048.144.049.147.047.152.047.155.047.16.045.163.045.167.043.171.043.176.041.178.041.183.039.187.039.19.037.194.035.197.035.202.033.204.031.209.03.212.029.216.027.219.025.222.024.226.021.23.02.233.018.236.016.24.015.243.012.246.01.249.008.253.005.256.004.259.001.26-.001.257-.004.254-.005.25-.008.247-.011.244-.012.241-.014.237-.016.233-.018.231-.021.226-.021.224-.024.22-.026.216-.027.212-.028.21-.031.205-.031.202-.034.198-.034.194-.036.191-.037.187-.039.183-.04.179-.04.175-.042.172-.043.168-.044.163-.045.16-.046.155-.046.152-.047.148-.048.143-.049.139-.049.136-.05.131-.05.126-.05.123-.051.118-.052.114-.051.11-.052.106-.052.101-.052.096-.052.092-.052.088-.053.083-.051.079-.052.074-.052.07-.051.065-.051.06-.051.056-.05.051-.05.023-.024.023-.025.021-.024.02-.024.019-.024.018-.024.017-.024.015-.023.014-.024.013-.023.012-.023.01-.023.01-.022.008-.022.006-.022.006-.022.004-.022.004-.021.001-.021.001-.021v-4.127l-.077.055-.08.053-.083.054-.085.053-.087.052-.09.052-.093.051-.095.05-.097.05-.1.049-.102.049-.105.048-.106.047-.109.047-.111.046-.114.045-.115.045-.118.044-.12.043-.122.042-.124.042-.126.041-.128.04-.13.04-.132.038-.134.038-.135.037-.138.037-.139.035-.142.035-.143.034-.144.033-.147.032-.148.031-.15.03-.151.03-.153.029-.154.027-.156.027-.158.026-.159.025-.161.024-.162.023-.163.022-.165.021-.166.02-.167.019-.169.018-.169.017-.171.016-.173.015-.173.014-.175.013-.175.012-.177.011-.178.01-.179.008-.179.008-.181.006-.182.005-.182.004-.184.003-.184.002h-.37l-.184-.002-.184-.003-.182-.004-.182-.005-.181-.006-.179-.008-.179-.008-.178-.01-.176-.011-.176-.012-.175-.013-.173-.014-.172-.015-.171-.016-.17-.017-.169-.018-.167-.019-.166-.02-.165-.021-.163-.022-.162-.023-.161-.024-.159-.025-.157-.026-.156-.027-.155-.027-.153-.029-.151-.03-.15-.03-.148-.031-.146-.032-.145-.033-.143-.034-.141-.035-.14-.035-.137-.037-.136-.037-.134-.038-.132-.038-.13-.04-.128-.04-.126-.041-.124-.042-.122-.042-.12-.044-.117-.043-.116-.045-.113-.045-.112-.046-.109-.047-.106-.047-.105-.048-.102-.049-.1-.049-.097-.05-.095-.05-.093-.052-.09-.051-.087-.052-.085-.053-.083-.054-.08-.054-.077-.054v4.127zm0-5.654v.011l.001.021.003.021.004.021.005.022.006.022.007.022.009.022.01.022.011.023.012.023.013.023.015.024.016.023.017.024.018.024.019.024.021.024.022.024.023.025.024.024.052.05.056.05.061.05.066.051.07.051.075.052.079.051.084.052.088.052.092.052.097.052.102.052.105.052.11.051.114.051.119.052.123.05.127.051.131.05.135.049.139.049.144.048.147.048.152.047.155.046.16.045.163.045.167.044.171.042.176.042.178.04.183.04.187.038.19.037.194.036.197.034.202.033.204.032.209.03.212.028.216.027.219.025.222.024.226.022.23.02.233.018.236.016.24.014.243.012.246.01.249.008.253.006.256.003.259.001.26-.001.257-.003.254-.006.25-.008.247-.01.244-.012.241-.015.237-.016.233-.018.231-.02.226-.022.224-.024.22-.025.216-.027.212-.029.21-.03.205-.032.202-.033.198-.035.194-.036.191-.037.187-.039.183-.039.179-.041.175-.042.172-.043.168-.044.163-.045.16-.045.155-.047.152-.047.148-.048.143-.048.139-.05.136-.049.131-.05.126-.051.123-.051.118-.051.114-.052.11-.052.106-.052.101-.052.096-.052.092-.052.088-.052.083-.052.079-.052.074-.051.07-.052.065-.051.06-.05.056-.051.051-.049.023-.025.023-.024.021-.025.02-.024.019-.024.018-.024.017-.024.015-.023.014-.023.013-.024.012-.022.01-.023.01-.023.008-.022.006-.022.006-.022.004-.021.004-.022.001-.021.001-.021v-4.139l-.077.054-.08.054-.083.054-.085.052-.087.053-.09.051-.093.051-.095.051-.097.05-.1.049-.102.049-.105.048-.106.047-.109.047-.111.046-.114.045-.115.044-.118.044-.12.044-.122.042-.124.042-.126.041-.128.04-.13.039-.132.039-.134.038-.135.037-.138.036-.139.036-.142.035-.143.033-.144.033-.147.033-.148.031-.15.03-.151.03-.153.028-.154.028-.156.027-.158.026-.159.025-.161.024-.162.023-.163.022-.165.021-.166.02-.167.019-.169.018-.169.017-.171.016-.173.015-.173.014-.175.013-.175.012-.177.011-.178.009-.179.009-.179.007-.181.007-.182.005-.182.004-.184.003-.184.002h-.37l-.184-.002-.184-.003-.182-.004-.182-.005-.181-.007-.179-.007-.179-.009-.178-.009-.176-.011-.176-.012-.175-.013-.173-.014-.172-.015-.171-.016-.17-.017-.169-.018-.167-.019-.166-.02-.165-.021-.163-.022-.162-.023-.161-.024-.159-.025-.157-.026-.156-.027-.155-.028-.153-.028-.151-.03-.15-.03-.148-.031-.146-.033-.145-.033-.143-.033-.141-.035-.14-.036-.137-.036-.136-.037-.134-.038-.132-.039-.13-.039-.128-.04-.126-.041-.124-.042-.122-.043-.12-.043-.117-.044-.116-.044-.113-.046-.112-.046-.109-.046-.106-.047-.105-.048-.102-.049-.1-.049-.097-.05-.095-.051-.093-.051-.09-.051-.087-.053-.085-.052-.083-.054-.08-.054-.077-.054v4.139zm0-5.666v.011l.001.02.003.022.004.021.005.022.006.021.007.022.009.023.01.022.011.023.012.023.013.023.015.023.016.024.017.024.018.023.019.024.021.025.022.024.023.024.024.025.052.05.056.05.061.05.066.051.07.051.075.052.079.051.084.052.088.052.092.052.097.052.102.052.105.051.11.052.114.051.119.051.123.051.127.05.131.05.135.05.139.049.144.048.147.048.152.047.155.046.16.045.163.045.167.043.171.043.176.042.178.04.183.04.187.038.19.037.194.036.197.034.202.033.204.032.209.03.212.028.216.027.219.025.222.024.226.021.23.02.233.018.236.017.24.014.243.012.246.01.249.008.253.006.256.003.259.001.26-.001.257-.003.254-.006.25-.008.247-.01.244-.013.241-.014.237-.016.233-.018.231-.02.226-.022.224-.024.22-.025.216-.027.212-.029.21-.03.205-.032.202-.033.198-.035.194-.036.191-.037.187-.039.183-.039.179-.041.175-.042.172-.043.168-.044.163-.045.16-.045.155-.047.152-.047.148-.048.143-.049.139-.049.136-.049.131-.051.126-.05.123-.051.118-.052.114-.051.11-.052.106-.052.101-.052.096-.052.092-.052.088-.052.083-.052.079-.052.074-.052.07-.051.065-.051.06-.051.056-.05.051-.049.023-.025.023-.025.021-.024.02-.024.019-.024.018-.024.017-.024.015-.023.014-.024.013-.023.012-.023.01-.022.01-.023.008-.022.006-.022.006-.022.004-.022.004-.021.001-.021.001-.021v-4.153l-.077.054-.08.054-.083.053-.085.053-.087.053-.09.051-.093.051-.095.051-.097.05-.1.049-.102.048-.105.048-.106.048-.109.046-.111.046-.114.046-.115.044-.118.044-.12.043-.122.043-.124.042-.126.041-.128.04-.13.039-.132.039-.134.038-.135.037-.138.036-.139.036-.142.034-.143.034-.144.033-.147.032-.148.032-.15.03-.151.03-.153.028-.154.028-.156.027-.158.026-.159.024-.161.024-.162.023-.163.023-.165.021-.166.02-.167.019-.169.018-.169.017-.171.016-.173.015-.173.014-.175.013-.175.012-.177.01-.178.01-.179.009-.179.007-.181.006-.182.006-.182.004-.184.003-.184.001-.185.001-.185-.001-.184-.001-.184-.003-.182-.004-.182-.006-.181-.006-.179-.007-.179-.009-.178-.01-.176-.01-.176-.012-.175-.013-.173-.014-.172-.015-.171-.016-.17-.017-.169-.018-.167-.019-.166-.02-.165-.021-.163-.023-.162-.023-.161-.024-.159-.024-.157-.026-.156-.027-.155-.028-.153-.028-.151-.03-.15-.03-.148-.032-.146-.032-.145-.033-.143-.034-.141-.034-.14-.036-.137-.036-.136-.037-.134-.038-.132-.039-.13-.039-.128-.041-.126-.041-.124-.041-.122-.043-.12-.043-.117-.044-.116-.044-.113-.046-.112-.046-.109-.046-.106-.048-.105-.048-.102-.048-.1-.05-.097-.049-.095-.051-.093-.051-.09-.052-.087-.052-.085-.053-.083-.053-.08-.054-.077-.054v4.153zm8.74-8.179l-.257.004-.254.005-.25.008-.247.011-.244.012-.241.014-.237.016-.233.018-.231.021-.226.022-.224.023-.22.026-.216.027-.212.028-.21.031-.205.032-.202.033-.198.034-.194.036-.191.038-.187.038-.183.04-.179.041-.175.042-.172.043-.168.043-.163.045-.16.046-.155.046-.152.048-.148.048-.143.048-.139.049-.136.05-.131.05-.126.051-.123.051-.118.051-.114.052-.11.052-.106.052-.101.052-.096.052-.092.052-.088.052-.083.052-.079.052-.074.051-.07.052-.065.051-.06.05-.056.05-.051.05-.023.025-.023.024-.021.024-.02.025-.019.024-.018.024-.017.023-.015.024-.014.023-.013.023-.012.023-.01.023-.01.022-.008.022-.006.023-.006.021-.004.022-.004.021-.001.021-.001.021.001.021.001.021.004.021.004.022.006.021.006.023.008.022.01.022.01.023.012.023.013.023.014.023.015.024.017.023.018.024.019.024.02.025.021.024.023.024.023.025.051.05.056.05.06.05.065.051.07.052.074.051.079.052.083.052.088.052.092.052.096.052.101.052.106.052.11.052.114.052.118.051.123.051.126.051.131.05.136.05.139.049.143.048.148.048.152.048.155.046.16.046.163.045.168.043.172.043.175.042.179.041.183.04.187.038.191.038.194.036.198.034.202.033.205.032.21.031.212.028.216.027.22.026.224.023.226.022.231.021.233.018.237.016.241.014.244.012.247.011.25.008.254.005.257.004.26.001.26-.001.257-.004.254-.005.25-.008.247-.011.244-.012.241-.014.237-.016.233-.018.231-.021.226-.022.224-.023.22-.026.216-.027.212-.028.21-.031.205-.032.202-.033.198-.034.194-.036.191-.038.187-.038.183-.04.179-.041.175-.042.172-.043.168-.043.163-.045.16-.046.155-.046.152-.048.148-.048.143-.048.139-.049.136-.05.131-.05.126-.051.123-.051.118-.051.114-.052.11-.052.106-.052.101-.052.096-.052.092-.052.088-.052.083-.052.079-.052.074-.051.07-.052.065-.051.06-.05.056-.05.051-.05.023-.025.023-.024.021-.024.02-.025.019-.024.018-.024.017-.023.015-.024.014-.023.013-.023.012-.023.01-.023.01-.022.008-.022.006-.023.006-.021.004-.022.004-.021.001-.021.001-.021-.001-.021-.001-.021-.004-.021-.004-.022-.006-.021-.006-.023-.008-.022-.01-.022-.01-.023-.012-.023-.013-.023-.014-.023-.015-.024-.017-.023-.018-.024-.019-.024-.02-.025-.021-.024-.023-.024-.023-.025-.051-.05-.056-.05-.06-.05-.065-.051-.07-.052-.074-.051-.079-.052-.083-.052-.088-.052-.092-.052-.096-.052-.101-.052-.106-.052-.11-.052-.114-.052-.118-.051-.123-.051-.126-.051-.131-.05-.136-.05-.139-.049-.143-.048-.148-.048-.152-.048-.155-.046-.16-.046-.163-.045-.168-.043-.172-.043-.175-.042-.179-.041-.183-.04-.187-.038-.191-.038-.194-.036-.198-.034-.202-.033-.205-.032-.21-.031-.212-.028-.216-.027-.22-.026-.224-.023-.226-.022-.231-.021-.233-.018-.237-.016-.241-.014-.244-.012-.247-.011-.25-.008-.254-.005-.257-.004-.26-.001-.26.001z" transform="scale(.5)"></path></symbol></defs><defs><symbol height="24" width="24" id="clock"><path d="M12 2c5.514 0 10 4.486 10 10s-4.486 10-10 10-10-4.486-10-10 4.486-10 10-10zm0-2c-6.627 0-12 5.373-12 12s5.373 12 12 12 12-5.373 12-12-5.373-12-12-12zm5.848 12.459c.202.038.202.333.001.372-1.907.361-6.045 1.111-6.547 1.111-.719 0-1.301-.582-1.301-1.301 0-.512.77-5.447 1.125-7.445.034-.192.312-.181.343.014l.985 6.238 5.394 1.011z" transform="scale(.5)"></path></symbol></defs><defs><marker orient="auto-start-reverse" markerHeight="12" markerWidth="12" markerUnits="userSpaceOnUse" refY="5" refX="7.9" id="arrowhead"><path d="M -1 0 L 10 5 L 0 10 z"></path></marker></defs><defs><marker refY="4.5" refX="4" orient="auto" markerHeight="8" markerWidth="15" id="crosshead"><path data-darkreader-inline-stroke="" style="stroke-dasharray: 0, 0; --darkreader-inline-stroke: #ffffff;" d="M 1,2 L 6,7 M 6,2 L 1,7" stroke-width="1pt" stroke="#000000" fill="none"></path></marker></defs><defs><marker orient="auto" markerHeight="28" markerWidth="20" refY="7" refX="15.5" id="filled-head"><path d="M 18,7 L9,13 L14,7 L9,1 Z"></path></marker></defs><defs><marker orient="auto" markerHeight="40" markerWidth="60" refY="15" refX="15" id="sequencenumber"><circle r="6" cy="15" cx="15"></circle></marker></defs><g id="viewport-20250620210702123" class="svg-pan-zoom_viewport" transform="matrix(0.377493776377658,0,0,0.377493776377658,117.52493887685543,57.83743918595836)" style="transform: matrix(0.377494, 0, 0, 0.377494, 117.524939, 57.837439);"><g><rect style="--darkreader-inline-fill: #111111; --darkreader-inline-stroke: #a3a3a3;" data-darkreader-inline-stroke="" data-darkreader-inline-fill="" class="actor actor-bottom" ry="3" rx="3" name="OP" height="65" width="150" stroke="#666" fill="#eaeaea" y="1919" x="1434"></rect><text style="text-anchor: middle; font-size: 16px; font-weight: 400;" class="actor actor-box" alignment-baseline="central" dominant-baseline="central" y="1951.5" x="1509"><tspan dy="0" x="1509">Mobile Operator</tspan></text></g><g><rect style="--darkreader-inline-fill: #111111; --darkreader-inline-stroke: #a3a3a3;" data-darkreader-inline-stroke="" data-darkreader-inline-fill="" class="actor actor-bottom" ry="3" rx="3" name="CP" height="65" width="185" stroke="#666" fill="#eaeaea" y="1919" x="977.5"></rect><text style="text-anchor: middle; font-size: 16px; font-weight: 400;" class="actor actor-box" alignment-baseline="central" dominant-baseline="central" y="1951.5" x="1070"><tspan dy="0" x="1070">Vonage API gateway</tspan></text></g><g><rect style="--darkreader-inline-fill: #111111; --darkreader-inline-stroke: #a3a3a3;" data-darkreader-inline-stroke="" data-darkreader-inline-fill="" class="actor actor-bottom" ry="3" rx="3" name="BE" height="65" width="182" stroke="#666" fill="#eaeaea" y="1919" x="620"></rect><text style="text-anchor: middle; font-size: 16px; font-weight: 400;" class="actor actor-box" alignment-baseline="central" dominant-baseline="central" y="1951.5" x="711"><tspan dy="0" x="711">Application backend</tspan></text></g><g><rect style="--darkreader-inline-fill: #111111; --darkreader-inline-stroke: #a3a3a3;" data-darkreader-inline-stroke="" data-darkreader-inline-fill="" class="actor actor-bottom" ry="3" rx="3" name="FE" height="65" width="186" stroke="#666" fill="#eaeaea" y="1919" x="296"></rect><text style="text-anchor: middle; font-size: 16px; font-weight: 400;" class="actor actor-box" alignment-baseline="central" dominant-baseline="central" y="1951.5" x="389"><tspan dy="0" x="389">Application frontend</tspan></text></g><g></g><g><line style="--darkreader-inline-stroke: #525252;" data-darkreader-inline-stroke="" name="OP" stroke="#999" stroke-width="0.5px" class="actor-line 200" y2="1919" x2="1509" y1="65" x1="1509" id="actor14"></line><g id="root-14"><rect style="--darkreader-inline-fill: #111111; --darkreader-inline-stroke: #a3a3a3;" data-darkreader-inline-stroke="" data-darkreader-inline-fill="" class="actor actor-top" ry="3" rx="3" name="OP" height="65" width="150" stroke="#666" fill="#eaeaea" y="0" x="1434"></rect><text style="text-anchor: middle; font-size: 16px; font-weight: 400;" class="actor actor-box" alignment-baseline="central" dominant-baseline="central" y="32.5" x="1509"><tspan dy="0" x="1509">Mobile Operator</tspan></text></g></g><g><line style="--darkreader-inline-stroke: #525252;" data-darkreader-inline-stroke="" name="CP" stroke="#999" stroke-width="0.5px" class="actor-line 200" y2="1919" x2="1070" y1="65" x1="1070" id="actor13"></line><g id="root-13"><rect style="--darkreader-inline-fill: #111111; --darkreader-inline-stroke: #a3a3a3;" data-darkreader-inline-stroke="" data-darkreader-inline-fill="" class="actor actor-top" ry="3" rx="3" name="CP" height="65" width="185" stroke="#666" fill="#eaeaea" y="0" x="977.5"></rect><text style="text-anchor: middle; font-size: 16px; font-weight: 400;" class="actor actor-box" alignment-baseline="central" dominant-baseline="central" y="32.5" x="1070"><tspan dy="0" x="1070">Vonage API gateway</tspan></text></g></g><g><line style="--darkreader-inline-stroke: #525252;" data-darkreader-inline-stroke="" name="BE" stroke="#999" stroke-width="0.5px" class="actor-line 200" y2="1919" x2="711" y1="65" x1="711" id="actor12"></line><g id="root-12"><rect style="--darkreader-inline-fill: #111111; --darkreader-inline-stroke: #a3a3a3;" data-darkreader-inline-stroke="" data-darkreader-inline-fill="" class="actor actor-top" ry="3" rx="3" name="BE" height="65" width="182" stroke="#666" fill="#eaeaea" y="0" x="620"></rect><text style="text-anchor: middle; font-size: 16px; font-weight: 400;" class="actor actor-box" alignment-baseline="central" dominant-baseline="central" y="32.5" x="711"><tspan dy="0" x="711">Application backend</tspan></text></g></g><g><line style="--darkreader-inline-stroke: #525252;" data-darkreader-inline-stroke="" name="FE" stroke="#999" stroke-width="0.5px" class="actor-line 200" y2="1919" x2="389" y1="65" x1="389" id="actor11"></line><g id="root-11"><rect style="--darkreader-inline-fill: #111111; --darkreader-inline-stroke: #a3a3a3;" data-darkreader-inline-stroke="" data-darkreader-inline-fill="" class="actor actor-top" ry="3" rx="3" name="FE" height="65" width="186" stroke="#666" fill="#eaeaea" y="0" x="296"></rect><text style="text-anchor: middle; font-size: 16px; font-weight: 400;" class="actor actor-box" alignment-baseline="central" dominant-baseline="central" y="32.5" x="389"><tspan dy="0" x="389">Application frontend</tspan></text></g></g><g><line style="--darkreader-inline-stroke: #525252;" data-darkreader-inline-stroke="" name="EU" stroke="#999" stroke-width="0.5px" class="actor-line 200" y2="1919" x2="75" y1="80" x1="75" id="actor10"></line></g><style>#graph-3{font-family:"trebuchet ms",verdana,arial,sans-serif;font-size:16px;fill:#ccc;}@keyframes edge-animation-frame{from{stroke-dashoffset:0;}}@keyframes dash{to{stroke-dashoffset:0;}}#graph-3 .edge-animation-slow{stroke-dasharray:9,5!important;stroke-dashoffset:900;animation:dash 50s linear infinite;stroke-linecap:round;}#graph-3 .edge-animation-fast{stroke-dasharray:9,5!important;stroke-dashoffset:900;animation:dash 20s linear infinite;stroke-linecap:round;}#graph-3 .error-icon{fill:#a44141;}#graph-3 .error-text{fill:#ddd;stroke:#ddd;}#graph-3 .edge-thickness-normal{stroke-width:1px;}#graph-3 .edge-thickness-thick{stroke-width:3.5px;}#graph-3 .edge-pattern-solid{stroke-dasharray:0;}#graph-3 .edge-thickness-invisible{stroke-width:0;fill:none;}#graph-3 .edge-pattern-dashed{stroke-dasharray:3;}#graph-3 .edge-pattern-dotted{stroke-dasharray:2;}#graph-3 .marker{fill:lightgrey;stroke:lightgrey;}#graph-3 .marker.cross{stroke:lightgrey;}#graph-3 svg{font-family:"trebuchet ms",verdana,arial,sans-serif;font-size:16px;}#graph-3 p{margin:0;}#graph-3 .actor{stroke:#ccc;fill:#1f2020;}#graph-3 text.actor&gt;tspan{fill:lightgrey;stroke:none;}#graph-3 .actor-line{stroke:#ccc;}#graph-3 .messageLine0{stroke-width:1.5;stroke-dasharray:none;stroke:lightgrey;}#graph-3 .messageLine1{stroke-width:1.5;stroke-dasharray:2,2;stroke:lightgrey;}#graph-3 #arrowhead path{fill:lightgrey;stroke:lightgrey;}#graph-3 .sequenceNumber{fill:black;}#graph-3 #sequencenumber{fill:lightgrey;}#graph-3 #crosshead path{fill:lightgrey;stroke:lightgrey;}#graph-3 .messageText{fill:lightgrey;stroke:none;}#graph-3 .labelBox{stroke:#ccc;fill:#1f2020;}#graph-3 .labelText,#graph-3 .labelText&gt;tspan{fill:lightgrey;stroke:none;}#graph-3 .loopText,#graph-3 .loopText&gt;tspan{fill:lightgrey;stroke:none;}#graph-3 .loopLine{stroke-width:2px;stroke-dasharray:2,2;stroke:#ccc;fill:#ccc;}#graph-3 .note{stroke:hsl(180, 0%, 18.3529411765%);fill:hsl(180, 1.5873015873%, 28.3529411765%);}#graph-3 .noteText,#graph-3 .noteText&gt;tspan{fill:rgb(183.8476190475, 181.5523809523, 181.5523809523);stroke:none;}#graph-3 .activation0{fill:hsl(180, 1.5873015873%, 28.3529411765%);stroke:#ccc;}#graph-3 .activation1{fill:hsl(180, 1.5873015873%, 28.3529411765%);stroke:#ccc;}#graph-3 .activation2{fill:hsl(180, 1.5873015873%, 28.3529411765%);stroke:#ccc;}#graph-3 .actorPopupMenu{position:absolute;}#graph-3 .actorPopupMenuPanel{position:absolute;fill:#1f2020;box-shadow:0px 8px 16px 0px rgba(0,0,0,0.2);filter:drop-shadow(3px 5px 2px rgb(0 0 0 / 0.4));}#graph-3 .actor-man line{stroke:#ccc;fill:#1f2020;}#graph-3 .actor-man circle,#graph-3 line{stroke:#ccc;fill:#1f2020;stroke-width:2px;}#graph-3 :root{--mermaid-font-family:"trebuchet ms",verdana,arial,sans-serif;}</style><style media="screen" class="darkreader darkreader--sync"></style><g></g><g><rect style="--darkreader-inline-fill: #2e3108; --darkreader-inline-stroke: #a3a3a3;" data-darkreader-inline-stroke="" data-darkreader-inline-fill="" class="activation0" height="1834" width="10" stroke="#666" fill="#EDF2AE" y="65" x="70"></rect></g><g><rect style="--darkreader-inline-fill: #2e3108; --darkreader-inline-stroke: #a3a3a3;" data-darkreader-inline-stroke="" data-darkreader-inline-fill="" class="activation0" height="1784" width="10" stroke="#666" fill="#EDF2AE" y="115" x="384"></rect></g><g><rect style="--darkreader-inline-fill: #eff3b6; --darkreader-inline-stroke: #a3a3a3;" data-darkreader-inline-stroke="" data-darkreader-inline-fill="" class="activation0" height="46" width="10" stroke="#666" fill="#EDF2AE" y="259" x="1504"></rect></g><g><rect style="--darkreader-inline-fill: #2e3108; --darkreader-inline-stroke: #a3a3a3;" data-darkreader-inline-stroke="" data-darkreader-inline-fill="" class="activation0" height="220" width="10" stroke="#666" fill="#EDF2AE" y="355" x="1065"></rect></g><g><rect style="--darkreader-inline-fill: #eff3b6; --darkreader-inline-stroke: #a3a3a3;" data-darkreader-inline-stroke="" data-darkreader-inline-fill="" class="activation0" height="46" width="10" stroke="#666" fill="#EDF2AE" y="403" x="1504"></rect></g><g><rect style="--darkreader-inline-fill: #2e3108; --darkreader-inline-stroke: #a3a3a3;" data-darkreader-inline-stroke="" data-darkreader-inline-fill="" class="activation0" height="298" width="10" stroke="#666" fill="#EDF2AE" y="625" x="706"></rect></g><g><rect style="--darkreader-inline-fill: #2e3108; --darkreader-inline-stroke: #a3a3a3;" data-darkreader-inline-stroke="" data-darkreader-inline-fill="" class="activation0" height="124" width="10" stroke="#666" fill="#EDF2AE" y="673" x="1065"></rect></g><g><rect style="--darkreader-inline-fill: #2e3108; --darkreader-inline-stroke: #a3a3a3;" data-darkreader-inline-stroke="" data-darkreader-inline-fill="" class="activation0" height="916" width="10" stroke="#666" fill="#EDF2AE" y="973" x="706"></rect></g><g><rect style="--darkreader-inline-fill: #2e3108; --darkreader-inline-stroke: #a3a3a3;" data-darkreader-inline-stroke="" data-darkreader-inline-fill="" class="activation0" height="598" width="10" stroke="#666" fill="#EDF2AE" y="1099" x="1065"></rect></g><g><rect style="--darkreader-inline-fill: #eff3b6; --darkreader-inline-stroke: #a3a3a3;" data-darkreader-inline-stroke="" data-darkreader-inline-fill="" class="activation0" height="46" width="10" stroke="#666" fill="#EDF2AE" y="1225" x="1504"></rect></g><g><line class="loopLine" y2="1329" x2="1085" y1="1329" x1="60"></line><line class="loopLine" y2="1899" x2="1085" y1="1329" x1="1085"></line><line class="loopLine" y2="1899" x2="1085" y1="1899" x1="60"></line><line class="loopLine" y2="1899" x2="60" y1="1329" x1="60"></line><line style="stroke-dasharray: 3, 3;" class="loopLine" y2="1475" x2="1085" y1="1475" x1="60"></line><polygon class="labelBox" points="60,1329 110,1329 110,1342 101.6,1349 60,1349"></polygon><text style="font-size: 16px; font-weight: 400;" class="labelText" alignment-baseline="middle" dominant-baseline="middle" text-anchor="middle" y="1342" x="85">alt</text><text style="font-size: 16px; font-weight: 400;" class="loopText" text-anchor="middle" y="1347" x="597.5"><tspan x="597.5">[If number can be verified]</tspan></text><text style="font-size: 16px; font-weight: 400;" class="loopText" text-anchor="middle" y="1493" x="572.5">[If number cannot be verified]</text></g><g name="EU" class="actor-man actor-top"><line y2="45" x2="75" y1="25" x1="75" id="actor-man-torso10"></line><line y2="33" x2="93" y1="33" x1="57" id="actor-man-arms10"></line><line y2="45" x2="75" y1="60" x1="57"></line><line y2="60" x2="91" y1="45" x1="75"></line><circle height="65" width="150" r="15" cy="10" cx="75"></circle><text style="text-anchor: middle; font-size: 16px; font-weight: 400;" class="actor actor-man" alignment-baseline="central" dominant-baseline="central" y="67.5" x="75"><tspan dy="0" x="75">End User</tspan></text></g><text style="font-size: 16px; font-weight: 400;" dy="1em" class="messageText" alignment-baseline="middle" dominant-baseline="middle" text-anchor="middle" y="80" x="233">Submits sign-up form</text><line data-darkreader-inline-fill="" data-darkreader-inline-stroke="" style="fill: none; --darkreader-inline-stroke: none; --darkreader-inline-fill: none;" marker-end="url(#arrowhead)" stroke="none" stroke-width="2" class="messageLine0" y2="113" x2="385" y1="113" x1="80"></line><text style="font-size: 16px; font-weight: 400;" dy="1em" class="messageText" alignment-baseline="middle" dominant-baseline="middle" text-anchor="middle" y="128" x="730">GET /authorize?request_id</text><line data-darkreader-inline-fill="" data-darkreader-inline-stroke="" style="fill: none; --darkreader-inline-stroke: none; --darkreader-inline-fill: none;" marker-end="url(#arrowhead)" stroke="none" stroke-width="2" class="messageLine0" y2="161" x2="1066" y1="161" x1="394"></line><text style="font-size: 16px; font-weight: 400;" dy="1em" class="messageText" alignment-baseline="middle" dominant-baseline="middle" text-anchor="middle" y="176" x="733">302 (redirect) Location: /authorize</text><line data-darkreader-inline-fill="" data-darkreader-inline-stroke="" style="stroke-dasharray: 3, 3; fill: none; --darkreader-inline-stroke: none; --darkreader-inline-fill: none;" marker-end="url(#arrowhead)" stroke="none" stroke-width="2" class="messageLine1" y2="209" x2="397" y1="209" x1="1069"></line><text style="font-size: 16px; font-weight: 400;" dy="1em" class="messageText" alignment-baseline="middle" dominant-baseline="middle" text-anchor="middle" y="224" x="950">GET /authorize</text><line data-darkreader-inline-fill="" data-darkreader-inline-stroke="" style="stroke-dasharray: 3, 3; fill: none; --darkreader-inline-stroke: none; --darkreader-inline-fill: none;" marker-end="url(#arrowhead)" stroke="none" stroke-width="2" class="messageLine1" y2="257" x2="1505" y1="257" x1="394"></line><text style="font-size: 16px; font-weight: 400;" dy="1em" class="messageText" alignment-baseline="middle" dominant-baseline="middle" text-anchor="middle" y="272" x="951">302 (redirect) Location: /callback?operator_code</text><line data-darkreader-inline-fill="" data-darkreader-inline-stroke="" style="stroke-dasharray: 3, 3; fill: none; --darkreader-inline-stroke: none; --darkreader-inline-fill: none;" marker-end="url(#arrowhead)" stroke="none" stroke-width="2" class="messageLine1" y2="305" x2="397" y1="305" x1="1504"></line><text style="font-size: 16px; font-weight: 400;" dy="1em" class="messageText" alignment-baseline="middle" dominant-baseline="middle" text-anchor="middle" y="320" x="730">GET /callback?operator_code</text><line data-darkreader-inline-fill="" data-darkreader-inline-stroke="" style="stroke-dasharray: 3, 3; fill: none; --darkreader-inline-stroke: none; --darkreader-inline-fill: none;" marker-end="url(#arrowhead)" stroke="none" stroke-width="2" class="messageLine1" y2="353" x2="1066" y1="353" x1="394"></line><text style="font-size: 16px; font-weight: 400;" dy="1em" class="messageText" alignment-baseline="middle" dominant-baseline="middle" text-anchor="middle" y="368" x="1290">POST /token?operator_code</text><line data-darkreader-inline-fill="" data-darkreader-inline-stroke="" style="fill: none; --darkreader-inline-stroke: none; --darkreader-inline-fill: none;" marker-end="url(#arrowhead)" stroke="none" stroke-width="2" class="messageLine0" y2="401" x2="1505" y1="401" x1="1075"></line><text style="font-size: 16px; font-weight: 400;" dy="1em" class="messageText" alignment-baseline="middle" dominant-baseline="middle" text-anchor="middle" y="416" x="1291">200 operator_access_token</text><line data-darkreader-inline-fill="" data-darkreader-inline-stroke="" style="stroke-dasharray: 3, 3; fill: none; --darkreader-inline-stroke: none; --darkreader-inline-fill: none;" marker-end="url(#arrowhead)" stroke="none" stroke-width="2" class="messageLine1" y2="449" x2="1078" y1="449" x1="1504"></line><text style="font-size: 16px; font-weight: 400;" dy="1em" class="messageText" alignment-baseline="middle" dominant-baseline="middle" text-anchor="middle" y="464" x="1075">Generate code to resolve operator_access_token later</text><path data-darkreader-inline-fill="" data-darkreader-inline-stroke="" style="fill: none; --darkreader-inline-stroke: none; --darkreader-inline-fill: none;" marker-end="url(#arrowhead)" stroke="none" stroke-width="2" class="messageLine0" d="M 1075,497 C 1135,487 1135,527 1075,517"></path><text style="font-size: 16px; font-weight: 400;" dy="1em" class="messageText" alignment-baseline="middle" dominant-baseline="middle" text-anchor="middle" y="542" x="731">302 (redirect) Location: /callback?code&amp;request_id</text><line data-darkreader-inline-fill="" data-darkreader-inline-stroke="" style="stroke-dasharray: 3, 3; fill: none; --darkreader-inline-stroke: none; --darkreader-inline-fill: none;" marker-end="url(#arrowhead)" stroke="none" stroke-width="2" class="messageLine1" y2="575" x2="397" y1="575" x1="1065"></line><text style="font-size: 16px; font-weight: 400;" dy="1em" class="messageText" alignment-baseline="middle" dominant-baseline="middle" text-anchor="middle" y="590" x="551">GET /callback?code&amp;request_id</text><line data-darkreader-inline-fill="" data-darkreader-inline-stroke="" style="stroke-dasharray: 3, 3; fill: none; --darkreader-inline-stroke: none; --darkreader-inline-fill: none;" marker-end="url(#arrowhead)" stroke="none" stroke-width="2" class="messageLine1" y2="623" x2="707" y1="623" x1="394"></line><text style="font-size: 16px; font-weight: 400;" dy="1em" class="messageText" alignment-baseline="middle" dominant-baseline="middle" text-anchor="middle" y="638" x="891">POST /token?code</text><line data-darkreader-inline-fill="" data-darkreader-inline-stroke="" style="fill: none; --darkreader-inline-stroke: none; --darkreader-inline-fill: none;" marker-end="url(#arrowhead)" stroke="none" stroke-width="2" class="messageLine0" y2="671" x2="1066" y1="671" x1="716"></line><text style="font-size: 16px; font-weight: 400;" dy="1em" class="messageText" alignment-baseline="middle" dominant-baseline="middle" text-anchor="middle" y="686" x="1075">Resolve operator_access_token and embed it along with routing info into a access_token</text><path data-darkreader-inline-fill="" data-darkreader-inline-stroke="" style="fill: none; --darkreader-inline-stroke: none; --darkreader-inline-fill: none;" marker-end="url(#arrowhead)" stroke="none" stroke-width="2" class="messageLine0" d="M 1075,719 C 1135,709 1135,749 1075,739"></path><text style="font-size: 16px; font-weight: 400;" dy="1em" class="messageText" alignment-baseline="middle" dominant-baseline="middle" text-anchor="middle" y="764" x="892">200 access_token</text><line data-darkreader-inline-fill="" data-darkreader-inline-stroke="" style="stroke-dasharray: 3, 3; fill: none; --darkreader-inline-stroke: none; --darkreader-inline-fill: none;" marker-end="url(#arrowhead)" stroke="none" stroke-width="2" class="messageLine1" y2="797" x2="719" y1="797" x1="1065"></line><text style="font-size: 16px; font-weight: 400;" dy="1em" class="messageText" alignment-baseline="middle" dominant-baseline="middle" text-anchor="middle" y="812" x="716">Keeps access_token for request_id</text><path data-darkreader-inline-fill="" data-darkreader-inline-stroke="" style="fill: none; --darkreader-inline-stroke: none; --darkreader-inline-fill: none;" marker-end="url(#arrowhead)" stroke="none" stroke-width="2" class="messageLine0" d="M 716,845 C 776,835 776,875 716,865"></path><text style="font-size: 16px; font-weight: 400;" dy="1em" class="messageText" alignment-baseline="middle" dominant-baseline="middle" text-anchor="middle" y="890" x="552">200</text><line data-darkreader-inline-fill="" data-darkreader-inline-stroke="" style="stroke-dasharray: 3, 3; fill: none; --darkreader-inline-stroke: none; --darkreader-inline-fill: none;" marker-end="url(#arrowhead)" stroke="none" stroke-width="2" class="messageLine1" y2="923" x2="397" y1="923" x1="706"></line><text style="font-size: 16px; font-weight: 400;" dy="1em" class="messageText" alignment-baseline="middle" dominant-baseline="middle" text-anchor="middle" y="938" x="551">POST /signup?request_id</text><line data-darkreader-inline-fill="" data-darkreader-inline-stroke="" style="stroke-dasharray: 3, 3; fill: none; --darkreader-inline-stroke: none; --darkreader-inline-fill: none;" marker-end="url(#arrowhead)" stroke="none" stroke-width="2" class="messageLine1" y2="971" x2="707" y1="971" x1="394"></line><text style="font-size: 16px; font-weight: 400;" dy="1em" class="messageText" alignment-baseline="middle" dominant-baseline="middle" text-anchor="middle" y="986" x="716">Takes access_token for request_id</text><path data-darkreader-inline-fill="" data-darkreader-inline-stroke="" style="fill: none; --darkreader-inline-stroke: none; --darkreader-inline-fill: none;" marker-end="url(#arrowhead)" stroke="none" stroke-width="2" class="messageLine0" d="M 716,1019 C 776,1009 776,1049 716,1039"></path><text style="font-size: 16px; font-weight: 400;" dy="1em" class="messageText" alignment-baseline="middle" dominant-baseline="middle" text-anchor="middle" y="1064" x="891">/number-verification?access_token</text><line data-darkreader-inline-fill="" data-darkreader-inline-stroke="" style="fill: none; --darkreader-inline-stroke: none; --darkreader-inline-fill: none;" marker-end="url(#arrowhead)" stroke="none" stroke-width="2" class="messageLine0" y2="1097" x2="1066" y1="1097" x1="716"></line><text style="font-size: 16px; font-weight: 400;" dy="1em" class="messageText" alignment-baseline="middle" dominant-baseline="middle" text-anchor="middle" y="1112" x="1075">Unembed operator routing information and operator_access_token</text><path data-darkreader-inline-fill="" data-darkreader-inline-stroke="" style="fill: none; --darkreader-inline-stroke: none; --darkreader-inline-fill: none;" marker-end="url(#arrowhead)" stroke="none" stroke-width="2" class="messageLine0" d="M 1075,1145 C 1135,1135 1135,1175 1075,1165"></path><text style="font-size: 16px; font-weight: 400;" dy="1em" class="messageText" alignment-baseline="middle" dominant-baseline="middle" text-anchor="middle" y="1190" x="1290">/number-verification?operator_access_token</text><line data-darkreader-inline-fill="" data-darkreader-inline-stroke="" style="fill: none; --darkreader-inline-stroke: none; --darkreader-inline-fill: none;" marker-end="url(#arrowhead)" stroke="none" stroke-width="2" class="messageLine0" y2="1223" x2="1505" y1="1223" x1="1075"></line><text style="font-size: 16px; font-weight: 400;" dy="1em" class="messageText" alignment-baseline="middle" dominant-baseline="middle" text-anchor="middle" y="1238" x="1291">200 true/false</text><line data-darkreader-inline-fill="" data-darkreader-inline-stroke="" style="stroke-dasharray: 3, 3; fill: none; --darkreader-inline-stroke: none; --darkreader-inline-fill: none;" marker-end="url(#arrowhead)" stroke="none" stroke-width="2" class="messageLine1" y2="1271" x2="1078" y1="1271" x1="1504"></line><text style="font-size: 16px; font-weight: 400;" dy="1em" class="messageText" alignment-baseline="middle" dominant-baseline="middle" text-anchor="middle" y="1286" x="892">200 true/false</text><line data-darkreader-inline-fill="" data-darkreader-inline-stroke="" style="stroke-dasharray: 3, 3; fill: none; --darkreader-inline-stroke: none; --darkreader-inline-fill: none;" marker-end="url(#arrowhead)" stroke="none" stroke-width="2" class="messageLine1" y2="1319" x2="719" y1="1319" x1="1065"></line><text style="font-size: 16px; font-weight: 400;" dy="1em" class="messageText" alignment-baseline="middle" dominant-baseline="middle" text-anchor="middle" y="1379" x="552">201</text><line data-darkreader-inline-fill="" data-darkreader-inline-stroke="" style="fill: none; --darkreader-inline-stroke: none; --darkreader-inline-fill: none;" marker-end="url(#arrowhead)" stroke="none" stroke-width="2" class="messageLine0" y2="1412" x2="397" y1="1412" x1="706"></line><text style="font-size: 16px; font-weight: 400;" dy="1em" class="messageText" alignment-baseline="middle" dominant-baseline="middle" text-anchor="middle" y="1427" x="234">Displays success message</text><line data-darkreader-inline-fill="" data-darkreader-inline-stroke="" style="stroke-dasharray: 3, 3; fill: none; --darkreader-inline-stroke: none; --darkreader-inline-fill: none;" marker-end="url(#arrowhead)" stroke="none" stroke-width="2" class="messageLine1" y2="1460" x2="83" y1="1460" x1="384"></line><text style="font-size: 16px; font-weight: 400;" dy="1em" class="messageText" alignment-baseline="middle" dominant-baseline="middle" text-anchor="middle" y="1520" x="889">POST /send-2fa-challenge</text><line data-darkreader-inline-fill="" data-darkreader-inline-stroke="" style="fill: none; --darkreader-inline-stroke: none; --darkreader-inline-fill: none;" marker-end="url(#arrowhead)" stroke="none" stroke-width="2" class="messageLine0" y2="1553" x2="1062" y1="1553" x1="716"></line><text style="font-size: 16px; font-weight: 400;" dy="1em" class="messageText" alignment-baseline="middle" dominant-baseline="middle" text-anchor="middle" y="1568" x="552">202</text><line data-darkreader-inline-fill="" data-darkreader-inline-stroke="" style="fill: none; --darkreader-inline-stroke: none; --darkreader-inline-fill: none;" marker-end="url(#arrowhead)" stroke="none" stroke-width="2" class="messageLine0" y2="1601" x2="397" y1="1601" x1="706"></line><text style="font-size: 16px; font-weight: 400;" dy="1em" class="messageText" alignment-baseline="middle" dominant-baseline="middle" text-anchor="middle" y="1616" x="234">Displays 2FA pending message</text><line data-darkreader-inline-fill="" data-darkreader-inline-stroke="" style="stroke-dasharray: 3, 3; fill: none; --darkreader-inline-stroke: none; --darkreader-inline-fill: none;" marker-end="url(#arrowhead)" stroke="none" stroke-width="2" class="messageLine1" y2="1649" x2="83" y1="1649" x1="384"></line><text style="font-size: 16px; font-weight: 400;" dy="1em" class="messageText" alignment-baseline="middle" dominant-baseline="middle" text-anchor="middle" y="1664" x="574">(SMS/Email) 2FA challenge sent</text><line data-darkreader-inline-fill="" data-darkreader-inline-stroke="" style="stroke-dasharray: 3, 3; fill: none; --darkreader-inline-stroke: none; --darkreader-inline-fill: none;" marker-end="url(#arrowhead)" stroke="none" stroke-width="2" class="messageLine1" y2="1697" x2="83" y1="1697" x1="1065"></line><text style="font-size: 16px; font-weight: 400;" dy="1em" class="messageText" alignment-baseline="middle" dominant-baseline="middle" text-anchor="middle" y="1712" x="231">Submits 2FA</text><line data-darkreader-inline-fill="" data-darkreader-inline-stroke="" style="fill: none; --darkreader-inline-stroke: none; --darkreader-inline-fill: none;" marker-end="url(#arrowhead)" stroke="none" stroke-width="2" class="messageLine0" y2="1745" x2="381" y1="1745" x1="80"></line><text style="font-size: 16px; font-weight: 400;" dy="1em" class="messageText" alignment-baseline="middle" dominant-baseline="middle" text-anchor="middle" y="1760" x="549">POST /signup?request_id&amp;2FA</text><line data-darkreader-inline-fill="" data-darkreader-inline-stroke="" style="fill: none; --darkreader-inline-stroke: none; --darkreader-inline-fill: none;" marker-end="url(#arrowhead)" stroke="none" stroke-width="2" class="messageLine0" y2="1793" x2="703" y1="1793" x1="394"></line><text style="font-size: 16px; font-weight: 400;" dy="1em" class="messageText" alignment-baseline="middle" dominant-baseline="middle" text-anchor="middle" y="1808" x="552">200</text><line data-darkreader-inline-fill="" data-darkreader-inline-stroke="" style="stroke-dasharray: 3, 3; fill: none; --darkreader-inline-stroke: none; --darkreader-inline-fill: none;" marker-end="url(#arrowhead)" stroke="none" stroke-width="2" class="messageLine1" y2="1841" x2="397" y1="1841" x1="706"></line><text style="font-size: 16px; font-weight: 400;" dy="1em" class="messageText" alignment-baseline="middle" dominant-baseline="middle" text-anchor="middle" y="1856" x="234">Displays success message</text><line data-darkreader-inline-fill="" data-darkreader-inline-stroke="" style="stroke-dasharray: 3, 3; fill: none; --darkreader-inline-stroke: none; --darkreader-inline-fill: none;" marker-end="url(#arrowhead)" stroke="none" stroke-width="2" class="messageLine1" y2="1889" x2="83" y1="1889" x1="384"></line><g name="EU" class="actor-man actor-bottom"><line y2="1964" x2="75" y1="1944" x1="75" id="actor-man-torso14"></line><line y2="1952" x2="93" y1="1952" x1="57" id="actor-man-arms14"></line><line y2="1964" x2="75" y1="1979" x1="57"></line><line y2="1979" x2="91" y1="1964" x1="75"></line><circle height="65" width="150" r="15" cy="1929" cx="75"></circle><text style="text-anchor: middle; font-size: 16px; font-weight: 400;" class="actor actor-man" alignment-baseline="central" dominant-baseline="central" y="1986.5" x="75"><tspan dy="0" x="75">End User</tspan></text></g></g></svg>